<svg xmlns="http://www.w3.org/2000/svg" viewBox="0 0 94.49 135.68"><defs><style>.cls-1{fill:#355386;}.cls-2{fill:#406aaa;}.cls-3{fill:#00874f;}</style></defs><g id="Layer_2" data-name="Layer 2"><g id="Layer-01"><path class="cls-1" d="M67.89,0H0V98.51A258.62,258.62,0,0,1,67.89,0Z"/><path class="cls-2" d="M67.89,0H82A260.44,260.44,0,0,0,35.25,48,249.56,249.56,0,0,0,10.59,88.29,238.55,238.55,0,0,0,0,113.94V97.19c1.24-3.29,2.83-7.25,4.8-11.67.43-1,3.39-7.58,7.22-14.71A313.13,313.13,0,0,1,30.23,42.34l.32-.45.39-.55L31.89,40c.23-.32.65-.9,1.56-2.11.36-.5,1.6-2.15,2.74-3.64,3.1-4,6.45-8,6.45-8s3.12-3.72,7.86-9c.5-.56.86-.95,1-1.07l.26-.28.16-.17L52,15.6l1.34-1.45L53.5,14c2-2.2,6.29-6.38,7.24-7.3,2.9-2.82,4.57-4.36,5.2-4.94Z"/><path class="cls-3" d="M81,0H94.49A232.5,232.5,0,0,0,50.77,40a255.08,255.08,0,0,0-27,39.35A269.41,269.41,0,0,0,.19,135.68L0,112A245.25,245.25,0,0,1,44.19,35,242.05,242.05,0,0,1,81,0Z"/></g></g></svg>