<svg xmlns="http://www.w3.org/2000/svg" viewBox="0 0 94.49 135.68"><defs><style>.cls-1{fill:#355386;}.cls-2{fill:#406aaa;}.cls-3{fill:#00874f;}</style></defs><g id="Layer_2" data-name="Layer 2"><g id="Layer-01"><g id="layer-02"><path class="cls-1" d="M26.6,135.68H94.49V37.17A259.39,259.39,0,0,1,65.05,92.23,259.42,259.42,0,0,1,26.6,135.68Z"/><path class="cls-2" d="M26.6,135.68H12.53a260.76,260.76,0,0,0,46.71-48A249.56,249.56,0,0,0,83.9,47.39,239.39,239.39,0,0,0,94.49,21.74V38.48c-1.24,3.3-2.83,7.26-4.8,11.68-.43,1-3.39,7.58-7.22,14.71A313.13,313.13,0,0,1,64.26,93.34l-.32.45-.39.55c-.62.85-.79,1.09-.95,1.32s-.65.9-1.56,2.11c-.36.49-1.6,2.15-2.74,3.64-3.1,4-6.45,8-6.45,8s-3.12,3.72-7.86,9l-1,1.07s-.13.13-.26.28l-.16.16a1.31,1.31,0,0,1-.12.14c-.21.23-.76.81-1.34,1.45l-.14.15c-2,2.2-6.29,6.38-7.24,7.3-2.9,2.82-4.57,4.36-5.2,4.93C27.76,134.64,27.09,135.24,26.6,135.68Z"/><path class="cls-3" d="M13.53,135.68H0a232.5,232.5,0,0,0,43.72-40,254.85,254.85,0,0,0,27-39.36A269.53,269.53,0,0,0,94.3,0l.19,23.71a245.25,245.25,0,0,1-44.19,77A243,243,0,0,1,13.53,135.68Z"/></g></g></g></svg>